<?xml version="1.0" standalone="no"?>
<!DOCTYPE svg PUBLIC "-//W3C//DTD SVG 20010904//EN"
 "http://www.w3.org/TR/2001/REC-SVG-20010904/DTD/svg10.dtd">
<svg version="1.0" xmlns="http://www.w3.org/2000/svg"
 width="2048.000000pt" height="2048.000000pt" viewBox="0 0 2048.000000 2048.000000"
 preserveAspectRatio="xMidYMid meet">

<g transform="translate(0.000000,2048.000000) scale(0.100000,-0.100000)"
fill="#000000" stroke="none">
<path d="M3073 16958 c30 -1278 434 -2377 1113 -3028 232 -222 453 -368 839
-556 430 -209 818 -364 2300 -919 2630 -985 3927 -1558 5220 -2305 1113 -643
2000 -1365 2544 -2068 36 -45 66 -81 68 -79 6 7 -412 886 -594 1252 -597 1194
-1048 1892 -1533 2374 -291 290 -508 435 -1445 971 -806 461 -2507 1401 -3545
1960 -146 78 -454 245 -685 370 -587 318 -1254 677 -1765 950 -239 128 -491
263 -560 300 -69 37 -393 211 -720 385 -327 175 -656 350 -730 390 -362 194
-498 265 -505 265 -4 0 -5 -118 -2 -262z"/>
<path d="M5630 12111 c0 -141 55 -532 106 -756 125 -549 341 -1029 632 -1404
95 -123 309 -334 434 -427 206 -154 382 -245 708 -369 306 -116 791 -268 1470
-460 988 -280 1487 -423 1740 -498 2130 -637 3520 -1217 4562 -1903 362 -239
615 -441 886 -709 100 -100 182 -180 182 -179 0 6 -315 544 -475 810 -519 863
-868 1350 -1245 1738 -152 155 -266 257 -419 370 -142 105 -211 145 -531 305
-256 127 -363 178 -910 429 -609 279 -2424 1081 -3185 1407 -93 40 -260 112
-370 160 -315 137 -3469 1490 -3572 1532 -10 4 -13 -9 -13 -46z"/>
<path d="M7774 8081 c18 -268 97 -597 201 -847 251 -598 676 -1004 1260 -1204
353 -121 707 -208 1935 -476 903 -198 1703 -382 2125 -489 2027 -517 3336
-1059 4113 -1703 119 -100 124 -103 91 -56 -20 27 -103 144 -184 259 -797
1129 -1299 1650 -1864 1935 -305 153 -1842 703 -4396 1572 -898 305 -1452 493
-2450 828 -445 150 -816 275 -824 278 -12 4 -13 -11 -7 -97z"/>
</g>
</svg>
