<?xml version="1.0" standalone="no"?>
<!DOCTYPE svg PUBLIC "-//W3C//DTD SVG 20010904//EN"
 "http://www.w3.org/TR/2001/REC-SVG-20010904/DTD/svg10.dtd">
<svg version="1.0" xmlns="http://www.w3.org/2000/svg"
 width="595.000000pt" height="104.000000pt" viewBox="0 0 595.000000 104.000000"
 preserveAspectRatio="xMidYMid meet">

<g transform="translate(0.000000,104.000000) scale(0.100000,-0.100000)"
fill="#000000" stroke="none">
<path d="M5860 954 c-25 -7 -55 -13 -67 -13 -32 -1 -30 -31 2 -31 14 0 29 -8
35 -19 10 -20 14 -173 5 -183 -3 -3 -29 -1 -58 4 -103 19 -204 -26 -246 -110
-54 -108 -23 -251 66 -309 41 -27 119 -23 177 10 27 15 50 27 52 27 1 0 4 -15
6 -32 3 -30 6 -33 36 -31 71 3 112 27 60 35 l-23 3 0 333 c0 182 0 331 0 331
0 -1 -20 -7 -45 -15z m-65 -288 l35 -15 0 -144 0 -144 -43 -17 c-60 -23 -118
-21 -152 6 -86 68 -85 256 2 310 35 22 111 23 158 4z"/>
<path d="M4117 943 c-56 -15 -64 -27 -23 -35 12 -2 23 -15 28 -33 5 -17 6
-156 3 -312 l-7 -282 39 -8 c65 -14 165 -9 215 10 126 49 183 209 119 335 -24
46 -46 67 -95 87 -47 20 -93 14 -155 -21 -24 -13 -45 -24 -48 -24 -2 0 -3 68
-1 150 2 96 -1 150 -7 149 -5 -1 -36 -8 -68 -16z m278 -316 c83 -83 69 -263
-25 -309 -44 -22 -128 -23 -158 -2 -21 14 -22 22 -22 163 l0 149 38 15 c20 9
59 16 86 16 41 1 53 -4 81 -32z"/>
<path d="M673 932 c-60 -17 -66 -27 -23 -35 l30 -6 0 -276 c0 -171 -4 -284
-10 -296 -6 -11 -21 -19 -35 -19 -16 0 -25 -6 -25 -15 0 -12 17 -15 95 -15 78
0 95 3 95 15 0 8 -9 15 -20 15 -27 0 -31 24 -28 180 l3 135 45 23 c49 24 117
29 143 10 25 -18 36 -106 28 -219 -6 -95 -18 -129 -47 -129 -8 0 -14 -7 -14
-15 0 -12 17 -15 90 -15 73 0 90 3 90 15 0 8 -7 15 -15 15 -27 0 -35 39 -35
179 0 77 -4 151 -9 164 -15 38 -49 65 -92 72 -38 7 -57 0 -181 -63 -5 -2 -8
64 -8 147 0 115 -3 151 -12 150 -7 -1 -37 -8 -65 -17z"/>
<path d="M4752 914 c-12 -8 -22 -23 -22 -33 0 -21 30 -51 52 -51 19 0 48 32
48 53 0 14 -35 47 -50 47 -3 0 -16 -7 -28 -16z"/>
<path d="M196 905 c-82 -29 -127 -80 -133 -152 -10 -99 34 -150 176 -204 109
-41 146 -73 146 -126 0 -84 -63 -128 -172 -121 -78 5 -112 28 -134 91 -23 69
-40 48 -32 -40 l6 -72 46 -8 c69 -12 171 -9 214 6 46 16 102 63 123 102 7 15
14 54 14 85 0 53 -2 59 -42 99 -31 30 -62 48 -108 64 -94 31 -142 61 -165 103
-18 35 -19 38 -3 72 25 51 67 69 146 64 58 -4 68 -8 93 -36 16 -18 29 -39 29
-47 0 -8 7 -15 15 -15 13 0 15 9 10 53 -9 75 -8 74 -78 86 -81 14 -103 13
-151 -4z"/>
<path d="M1428 708 c-47 -12 -113 -69 -139 -120 -22 -44 -28 -144 -10 -190 13
-34 68 -96 100 -112 106 -55 246 -5 300 107 28 58 29 153 1 206 -26 51 -82 97
-136 110 -50 13 -65 13 -116 -1z m148 -71 c74 -81 74 -240 -2 -306 -29 -26
-43 -31 -86 -31 -46 0 -55 4 -88 39 -82 86 -80 270 4 323 24 15 44 18 85 15
47 -3 59 -9 87 -40z"/>
<path d="M1920 695 c-60 -25 -73 -42 -38 -47 18 -2 24 -12 30 -43 9 -53 -2
-495 -14 -518 -5 -9 -18 -17 -28 -17 -11 0 -20 -7 -20 -15 0 -12 18 -15 105
-15 87 0 105 3 105 15 0 9 -9 15 -23 15 -45 0 -57 28 -57 129 0 81 2 92 16 87
38 -14 93 -17 134 -6 118 31 175 114 168 244 -4 93 -37 148 -105 178 -53 23
-96 19 -162 -18 -24 -13 -46 -24 -49 -24 -2 0 -2 14 2 30 7 35 7 35 -64 5z
m240 -50 c88 -46 101 -237 21 -309 -27 -24 -115 -33 -165 -16 l-36 12 0 149 0
150 33 14 c43 19 111 19 147 0z"/>
<path d="M2530 695 c-60 -25 -73 -42 -38 -47 18 -2 24 -12 30 -43 9 -53 -2
-495 -14 -518 -5 -9 -18 -17 -28 -17 -11 0 -20 -7 -20 -15 0 -12 18 -15 105
-15 87 0 105 3 105 15 0 9 -9 15 -23 15 -45 0 -57 28 -57 129 0 81 2 92 16 87
38 -14 93 -17 134 -6 118 31 175 114 168 244 -4 93 -37 148 -105 178 -53 23
-96 19 -162 -18 -24 -13 -46 -24 -49 -24 -2 0 -2 14 2 30 7 35 7 35 -64 5z
m240 -50 c88 -46 101 -237 21 -309 -27 -24 -115 -33 -165 -16 l-36 12 0 149 0
150 33 14 c43 19 111 19 147 0z"/>
<path d="M3237 710 c-86 -26 -147 -122 -147 -230 0 -83 28 -142 89 -185 35
-25 52 -30 99 -29 77 0 195 55 178 82 -4 7 -20 5 -49 -8 -125 -57 -247 11
-247 138 l0 42 150 0 150 0 0 28 c0 34 -31 101 -56 124 -46 41 -110 55 -167
38z m102 -51 c25 -24 56 -88 46 -97 -3 -3 -55 -8 -115 -10 -120 -5 -120 -5
-96 52 30 71 116 100 165 55z"/>
<path d="M3683 701 c-55 -16 -70 -37 -31 -43 32 -4 41 -52 36 -194 -4 -127
-13 -154 -49 -154 -11 0 -19 -7 -19 -17 0 -16 12 -18 105 -18 93 0 105 2 105
18 0 11 -8 17 -22 17 -49 0 -53 11 -56 142 l-3 123 35 38 c33 37 38 38 88 35
51 -3 53 -2 56 24 2 19 -3 30 -17 38 -33 17 -68 1 -116 -53 l-45 -52 0 58 c0
31 -3 56 -7 56 -5 -1 -32 -9 -60 -18z"/>
<path d="M4748 702 c-61 -17 -76 -39 -30 -44 l27 -3 3 -142 c3 -158 -9 -213
-47 -213 -12 0 -21 -7 -21 -15 0 -12 18 -15 100 -15 80 0 100 3 100 14 0 9
-12 16 -27 18 l-28 3 -3 208 c-1 114 -6 206 -10 206 -4 -1 -33 -9 -64 -17z"/>
<path d="M5113 701 c-55 -16 -70 -37 -31 -43 32 -4 41 -52 36 -194 -4 -127
-13 -154 -49 -154 -11 0 -19 -7 -19 -17 0 -16 12 -18 105 -18 93 0 105 2 105
18 0 11 -8 17 -22 17 -49 0 -53 11 -56 142 l-3 123 35 38 c33 37 38 38 88 35
51 -3 53 -2 56 24 2 19 -3 30 -17 38 -33 17 -68 1 -116 -53 l-45 -52 0 58 c0
31 -3 56 -7 56 -5 -1 -32 -9 -60 -18z"/>
</g>
</svg>
